<mxfile host="app.diagrams.net" agent="Mozilla/5.0 (Macintosh; Intel Mac OS X 10_15_7) AppleWebKit/537.36 (KHTML, like Gecko) Chrome/137.0.0.0 Safari/537.36" version="27.1.4">
  <diagram name="第 1 页" id="jSJ8SVsnWSZysaFK_Ut4">
    <mxGraphModel dx="1298" dy="706" grid="1" gridSize="10" guides="1" tooltips="1" connect="1" arrows="1" fold="1" page="1" pageScale="1" pageWidth="827" pageHeight="1169" math="0" shadow="0">
      <root>
        <mxCell id="0" />
        <mxCell id="1" parent="0" />
        <mxCell id="vliEY4tpriIMmWQ-F1L3-6" style="edgeStyle=orthogonalEdgeStyle;rounded=0;orthogonalLoop=1;jettySize=auto;html=1;exitX=0.5;exitY=1;exitDx=0;exitDy=0;entryX=0.5;entryY=0;entryDx=0;entryDy=0;" parent="1" source="vliEY4tpriIMmWQ-F1L3-1" target="vliEY4tpriIMmWQ-F1L3-2" edge="1">
          <mxGeometry relative="1" as="geometry" />
        </mxCell>
        <mxCell id="vliEY4tpriIMmWQ-F1L3-1" value="开始" style="ellipse;whiteSpace=wrap;html=1;fillColor=none;" parent="1" vertex="1">
          <mxGeometry x="260" y="70" width="120" height="80" as="geometry" />
        </mxCell>
        <mxCell id="5tEnzsrnYiPzs7nQUDVS-3" style="edgeStyle=orthogonalEdgeStyle;rounded=0;orthogonalLoop=1;jettySize=auto;html=1;exitX=0.5;exitY=1;exitDx=0;exitDy=0;entryX=0.5;entryY=0;entryDx=0;entryDy=0;" edge="1" parent="1" source="vliEY4tpriIMmWQ-F1L3-2" target="5tEnzsrnYiPzs7nQUDVS-1">
          <mxGeometry relative="1" as="geometry" />
        </mxCell>
        <mxCell id="vliEY4tpriIMmWQ-F1L3-2" value="指定线路+档位" style="rounded=1;whiteSpace=wrap;html=1;fillColor=none;" parent="1" vertex="1">
          <mxGeometry x="260" y="190" width="120" height="60" as="geometry" />
        </mxCell>
        <mxCell id="5tEnzsrnYiPzs7nQUDVS-5" style="edgeStyle=orthogonalEdgeStyle;rounded=0;orthogonalLoop=1;jettySize=auto;html=1;exitX=0.5;exitY=1;exitDx=0;exitDy=0;entryX=0.5;entryY=0;entryDx=0;entryDy=0;" edge="1" parent="1" source="vliEY4tpriIMmWQ-F1L3-3" target="5tEnzsrnYiPzs7nQUDVS-4">
          <mxGeometry relative="1" as="geometry" />
        </mxCell>
        <mxCell id="vliEY4tpriIMmWQ-F1L3-3" value="BN组网查询（按指定线路列表过滤）" style="rounded=1;whiteSpace=wrap;html=1;fillColor=none;" parent="1" vertex="1">
          <mxGeometry x="260" y="390" width="120" height="60" as="geometry" />
        </mxCell>
        <mxCell id="vliEY4tpriIMmWQ-F1L3-9" style="edgeStyle=orthogonalEdgeStyle;rounded=0;orthogonalLoop=1;jettySize=auto;html=1;exitX=0.5;exitY=1;exitDx=0;exitDy=0;entryX=0.5;entryY=0;entryDx=0;entryDy=0;" parent="1" source="vliEY4tpriIMmWQ-F1L3-4" target="vliEY4tpriIMmWQ-F1L3-5" edge="1">
          <mxGeometry relative="1" as="geometry" />
        </mxCell>
        <mxCell id="vliEY4tpriIMmWQ-F1L3-4" value="方案透传" style="rounded=1;whiteSpace=wrap;html=1;fillColor=none;" parent="1" vertex="1">
          <mxGeometry x="260" y="600" width="120" height="60" as="geometry" />
        </mxCell>
        <mxCell id="vliEY4tpriIMmWQ-F1L3-5" value="结束" style="ellipse;whiteSpace=wrap;html=1;fillColor=none;" parent="1" vertex="1">
          <mxGeometry x="260" y="704.5" width="120" height="80" as="geometry" />
        </mxCell>
        <mxCell id="5tEnzsrnYiPzs7nQUDVS-2" style="edgeStyle=orthogonalEdgeStyle;rounded=0;orthogonalLoop=1;jettySize=auto;html=1;exitX=0.5;exitY=1;exitDx=0;exitDy=0;entryX=0.5;entryY=0;entryDx=0;entryDy=0;" edge="1" parent="1" source="5tEnzsrnYiPzs7nQUDVS-1" target="vliEY4tpriIMmWQ-F1L3-3">
          <mxGeometry relative="1" as="geometry" />
        </mxCell>
        <mxCell id="5tEnzsrnYiPzs7nQUDVS-1" value="指定线路调运费模板获取可承运线路列表" style="rounded=1;whiteSpace=wrap;html=1;fillColor=none;" vertex="1" parent="1">
          <mxGeometry x="260" y="290" width="120" height="60" as="geometry" />
        </mxCell>
        <mxCell id="5tEnzsrnYiPzs7nQUDVS-6" style="edgeStyle=orthogonalEdgeStyle;rounded=0;orthogonalLoop=1;jettySize=auto;html=1;exitX=0.5;exitY=1;exitDx=0;exitDy=0;entryX=0.5;entryY=0;entryDx=0;entryDy=0;" edge="1" parent="1" source="5tEnzsrnYiPzs7nQUDVS-4" target="vliEY4tpriIMmWQ-F1L3-4">
          <mxGeometry relative="1" as="geometry" />
        </mxCell>
        <mxCell id="5tEnzsrnYiPzs7nQUDVS-4" value="线路过滤（同档位或更高档位过滤）" style="rounded=1;whiteSpace=wrap;html=1;fillColor=none;" vertex="1" parent="1">
          <mxGeometry x="260" y="490" width="120" height="60" as="geometry" />
        </mxCell>
      </root>
    </mxGraphModel>
  </diagram>
</mxfile>
